<svg xmlns="http://www.w3.org/2000/svg" viewBox="0 10.949999809265137 293.45001220703125 36.54999923706055" data-asc="0.94"><g fill="#ead8b1"><g fill="#ead8b1" transform="translate(0, 0)"><path d="M10.90 47.50Q8.60 47.50 6.60 47.02Q4.60 46.55 3.13 45.30Q1.65 44.05 0.83 41.77Q0 39.50 0 35.85Q0 35.25 0.02 34.63Q0.05 34 0.10 33.20Q0.15 32.40 0.27 31.42Q0.40 30.45 0.55 29.20Q1.25 24.05 2.68 20.72Q4.10 17.40 6.13 15.55Q8.15 13.70 10.63 12.95Q13.10 12.20 15.85 12.20L16.05 12.20Q18.65 12.20 20.90 13.07Q23.15 13.95 24.55 16.13Q25.95 18.30 25.95 22.20Q25.95 22.90 25.88 23.67Q25.80 24.45 25.70 25.30L23.05 25.30Q23.15 24.60 23.20 23.95Q23.25 23.30 23.25 22.70Q23.25 19.45 22.18 17.70Q21.10 15.95 19.32 15.27Q17.55 14.60 15.50 14.60Q12.60 14.60 10.13 15.72Q7.65 16.85 5.88 19.88Q4.10 22.90 3.30 28.60Q2.85 31.75 2.75 33.20Q2.65 34.65 2.65 35.65Q2.65 39.60 3.77 41.65Q4.90 43.70 6.78 44.40Q8.65 45.10 10.95 45.10Q13.50 45.10 15.72 44.20Q17.95 43.30 19.55 41Q21.15 38.70 21.70 34.45L24.35 34.45Q23.70 39.45 21.68 42.30Q19.65 45.15 16.88 46.33Q14.10 47.50 11.15 47.50L10.90 47.50ZM39.30 47L44.05 13.25L34.30 13.25L34.60 10.95L46.90 10.95L41.85 47L39.30 47M29.55 47L29.90 44.70L51.70 44.70L51.35 47L29.55 47ZM71 47.50Q68 47.50 65.72 46.23Q63.45 44.95 62.17 42.58Q60.90 40.20 60.90 36.95Q60.90 33.95 61.65 31.10Q62.40 28.25 63.95 25.95Q65.50 23.65 67.88 22.30Q70.25 20.95 73.45 20.95L73.65 20.95Q76.55 20.95 78.75 22.25Q80.95 23.55 82.20 25.90Q83.45 28.25 83.45 31.50Q83.45 34.50 82.70 37.35Q81.95 40.20 80.42 42.50Q78.90 44.80 76.60 46.15Q74.30 47.50 71.20 47.50L71 47.50M70.90 45.20Q74.90 45.20 77.13 42.85Q79.35 40.50 80.25 36.95Q80.50 36.05 80.63 35.20Q80.75 34.35 80.83 33.52Q80.90 32.70 80.90 31.95Q80.90 29.60 80.08 27.63Q79.25 25.65 77.60 24.45Q75.95 23.25 73.45 23.25Q70.60 23.25 68.63 24.55Q66.65 25.85 65.50 28Q64.35 30.15 63.85 32.75Q63.65 33.75 63.55 34.70Q63.45 35.65 63.45 36.60Q63.45 38.95 64.28 40.90Q65.10 42.85 66.78 44.02Q68.45 45.20 70.90 45.20ZM99.40 47.50Q95.45 47.50 93.23 45.42Q91 43.35 91 39.65Q91 39 91.10 37.98Q91.20 36.95 91.45 35.05Q91.70 33.15 92.20 29.88Q92.70 26.60 93.45 21.45L96 21.45Q95.25 26.75 94.78 30.02Q94.30 33.30 94.05 35.13Q93.80 36.95 93.73 37.92Q93.65 38.90 93.65 39.65Q93.65 42.25 95.35 43.73Q97.05 45.20 99.95 45.20Q103.45 45.20 105.93 42.83Q108.40 40.45 108.90 36.65L111.05 21.45L113.60 21.45Q113.05 25.40 112.50 29.25Q111.95 33.10 111.50 36.27Q111.05 39.45 110.78 41.50Q110.50 43.55 110.50 43.95Q110.50 44.55 110.80 44.88Q111.10 45.20 111.60 45.20Q112.85 45.20 114.30 44.40L114 46.55Q113.20 47.05 112.43 47.27Q111.65 47.50 110.80 47.50Q109.35 47.50 108.53 46.40Q107.70 45.30 107.90 43.50Q106.90 44.85 105.63 45.75Q104.35 46.65 102.80 47.08Q101.25 47.50 99.40 47.50ZM129.65 47.50Q127.05 47.50 125 46.45Q122.95 45.40 121.75 43.20Q120.55 41 120.55 37.50Q120.55 34.60 121.15 31.67Q121.75 28.75 123.15 26.32Q124.55 23.90 126.93 22.42Q129.30 20.95 132.80 20.95Q135.40 20.95 137.38 22.07Q139.35 23.20 140.30 25.25L142.35 11L144.90 11Q144.50 13.95 144.03 17.40Q143.55 20.85 143.03 24.40Q142.50 27.95 142.03 31.25Q141.55 34.55 141.18 37.25Q140.80 39.95 140.58 41.70Q140.35 43.45 140.35 43.85Q140.35 44.60 140.65 44.90Q140.95 45.20 141.45 45.20Q142 45.20 142.75 44.98Q143.50 44.75 144.15 44.40L143.85 46.55Q142.35 47.50 140.65 47.50Q138.95 47.50 138.25 46.25Q137.55 45 137.75 43.50Q136.30 45.55 134.22 46.52Q132.15 47.50 129.65 47.50M130 45.20Q132.65 45.20 134.43 44Q136.20 42.80 137.25 41Q138.30 39.20 138.70 37.45Q139.25 35.25 139.33 33.85Q139.40 32.45 139.40 31.25Q139.40 27.60 137.75 25.42Q136.10 23.25 132.65 23.25Q129.80 23.25 127.88 24.67Q125.95 26.10 124.88 28.35Q123.80 30.60 123.40 33.15Q123.30 33.85 123.23 34.52Q123.15 35.20 123.13 35.85Q123.10 36.50 123.10 37.15Q123.10 39.40 123.83 41.23Q124.55 43.05 126.08 44.13Q127.60 45.20 130 45.20ZM160.45 47.50Q157.35 47.50 154.83 46.73Q152.30 45.95 150.80 44.20Q149.30 42.45 149.30 39.45Q149.30 38.85 149.40 37.98Q149.50 37.10 149.60 36.75L152.15 36.75Q152.05 37.05 151.93 37.88Q151.80 38.70 151.80 39.25Q151.80 41.40 152.97 42.67Q154.15 43.95 156.15 44.52Q158.15 45.10 160.60 45.10Q163.30 45.10 165.75 44.35Q168.20 43.60 169.78 41.77Q171.35 39.95 171.35 36.75Q171.35 34.85 170.33 33.67Q169.30 32.50 167.63 31.77Q165.95 31.05 163.97 30.50Q162 29.95 160 29.38Q158 28.80 156.33 27.93Q154.65 27.05 153.63 25.63Q152.60 24.20 152.60 22Q152.60 18.55 154.40 16.38Q156.20 14.20 159.08 13.20Q161.95 12.20 165.20 12.20Q168.10 12.20 170.40 12.95Q172.70 13.70 174.05 15.35Q175.40 17 175.40 19.70Q175.40 20.05 175.38 20.50Q175.35 20.95 175.20 21.85L172.70 21.85Q172.85 20.80 172.88 20.45Q172.90 20.10 172.90 19.90Q172.90 17.25 170.60 15.92Q168.30 14.60 164.90 14.60Q162.45 14.60 160.22 15.27Q158 15.95 156.63 17.47Q155.25 19 155.25 21.60Q155.25 23.35 156.28 24.42Q157.30 25.50 158.97 26.17Q160.65 26.85 162.68 27.38Q164.70 27.90 166.70 28.50Q168.70 29.10 170.38 30Q172.05 30.90 173.08 32.38Q174.10 33.85 174.10 36.15Q174.10 39.30 172.93 41.48Q171.75 43.65 169.78 44.98Q167.80 46.30 165.38 46.90Q162.95 47.50 160.45 47.50ZM193.25 47.50Q190.65 47.50 188.78 46.27Q186.90 45.05 186.90 42.45Q186.90 42.05 186.95 41.27Q187 40.50 187.30 38.40L189.35 23.75L181.30 23.75L181.65 21.45L189.70 21.45L191.75 13.30L193.40 13.30L192.25 21.45L204.60 21.45L204.25 23.75L191.90 23.75L189.80 38.65Q189.70 39.45 189.63 40.40Q189.55 41.35 189.55 42.20Q189.55 43.80 190.70 44.50Q191.85 45.20 193.50 45.20Q195.45 45.20 197.70 44.42Q199.95 43.65 201.45 42.40L201.15 45.10Q200 45.85 198.68 46.40Q197.35 46.95 195.97 47.23Q194.60 47.50 193.25 47.50ZM221 47.50Q218 47.50 215.72 46.23Q213.45 44.95 212.18 42.58Q210.90 40.20 210.90 36.95Q210.90 33.95 211.65 31.10Q212.40 28.25 213.95 25.95Q215.50 23.65 217.88 22.30Q220.25 20.95 223.45 20.95L223.65 20.95Q226.55 20.95 228.75 22.25Q230.95 23.55 232.20 25.90Q233.45 28.25 233.45 31.50Q233.45 34.50 232.70 37.35Q231.95 40.20 230.43 42.50Q228.90 44.80 226.60 46.15Q224.30 47.50 221.20 47.50L221 47.50M220.90 45.20Q224.90 45.20 227.13 42.85Q229.35 40.50 230.25 36.95Q230.50 36.05 230.63 35.20Q230.75 34.35 230.83 33.52Q230.90 32.70 230.90 31.95Q230.90 29.60 230.08 27.63Q229.25 25.65 227.60 24.45Q225.95 23.25 223.45 23.25Q220.60 23.25 218.63 24.55Q216.65 25.85 215.50 28Q214.35 30.15 213.85 32.75Q213.65 33.75 213.55 34.70Q213.45 35.65 213.45 36.60Q213.45 38.95 214.28 40.90Q215.10 42.85 216.78 44.02Q218.45 45.20 220.90 45.20ZM240.50 47L244.10 21.45L246.10 21.45L246 25.25Q247.45 23.10 249.65 22.02Q251.85 20.95 254.45 20.95Q258.15 20.95 260.55 22.85Q262.95 24.75 262.95 28.60Q262.95 29.05 262.90 30.15Q262.85 31.25 262.65 32.70L260.65 47L258.10 47L260.20 32Q260.35 30.90 260.38 30.13Q260.40 29.35 260.40 29.15Q260.40 26.05 258.57 24.65Q256.75 23.25 253.95 23.25Q250.45 23.25 248.10 25.60Q245.75 27.95 245.20 31.70L243.05 47L240.50 47ZM281.15 47.50Q278.60 47.50 276.40 46.48Q274.20 45.45 272.88 43.08Q271.55 40.70 271.55 36.75Q271.55 33.60 272.27 30.77Q273 27.95 274.55 25.72Q276.10 23.50 278.50 22.22Q280.90 20.95 284.20 20.95L284.45 20.95Q286.90 20.95 288.95 22Q291 23.05 292.22 24.97Q293.45 26.90 293.45 29.60Q293.45 29.90 293.42 30.77Q293.40 31.65 293.32 32.70Q293.25 33.75 293.05 34.50L273.20 34.50L274.40 33.50Q274.20 34.75 274.15 35.40Q274.10 36.05 274.10 36.70Q274.10 40.05 275.20 41.90Q276.30 43.75 278.02 44.48Q279.75 45.20 281.55 45.20Q285.05 45.20 287.30 43.35Q289.55 41.50 290.10 37.55L292.60 37.55Q292.15 40.70 290.65 42.92Q289.15 45.15 286.80 46.33Q284.45 47.50 281.40 47.50L281.15 47.50M274.55 32.70L273.55 32.20L290.85 32.20Q291.05 31.10 291 30.65Q290.95 30.20 290.95 29.85Q290.95 27.70 289.97 26.22Q289 24.75 287.42 24Q285.85 23.25 284 23.25Q281.75 23.25 279.77 24.22Q277.80 25.20 276.42 27.27Q275.05 29.35 274.55 32.70Z"/></g></g></svg>